<?xml version="1.0" encoding="utf-8"?>
<svg version="1.1" id="Layer_1"
xmlns="http://www.w3.org/2000/svg"
xmlns:xlink="http://www.w3.org/1999/xlink"
width="200px" height="35px"
xml:space="preserve">
<g id="PathID_1" transform="matrix(0.881343, 0, 0, 0.664063, 9.6, 29.05)" opacity="1">
<path style="fill:#000000;fill-opacity:1" d="M7.75 0L4.95 0L4.95 -38.75L7.75 -38.75L7.75 0" />
</g>
<g id="PathID_2" transform="matrix(0.881343, 0, 0, 0.664063, 9.6, 29.05)" opacity="1">
</g>
<g id="PathID_3" transform="matrix(0.881343, 0, 0, 0.664063, 20.8, 29.05)" opacity="1">
<path style="fill:#000000;fill-opacity:1" d="M4.95 0L4.95 -38.75L7.75 -38.75L7.75 -2.5L23.25 -2.5L23.25 0L4.95 0" />
</g>
<g id="PathID_4" transform="matrix(0.881343, 0, 0, 0.664063, 20.8, 29.05)" opacity="1">
</g>
<g id="PathID_5" transform="matrix(0.881343, 0, 0, 0.664063, 44.5, 29.05)" opacity="1">
<path style="fill:#000000;fill-opacity:1" d="M30.15 0L25.75 -12L9 -12L4.6 0L1.55 0L16.15 -38.75L18.8 -38.75L33.25 0L30.15 0M17.45 -35.25L17.3 -35.25Q16.85 -33.5 16.45 -32.4L9.95 -14.55L24.8 -14.55L18.3 -32.35L17.45 -35.25" />
</g>
<g id="PathID_6" transform="matrix(0.881343, 0, 0, 0.664063, 44.5, 29.05)" opacity="1">
</g>
<g id="PathID_7" transform="matrix(0.881343, 0, 0, 0.664063, 75.15, 29.05)" opacity="1">
<path style="fill:#000000;fill-opacity:1" d="M25.95 0L17.05 -14.75Q16.2 -16.15 15.65 -17.45L15.5 -17.45Q15.2 -16.8 14 -14.75L4.95 0L1.6 0L13.85 -19.5L2.35 -38.75L5.65 -38.75L14.3 -24.2L15.7 -21.6L15.8 -21.6L17.25 -24.2L25.85 -38.75L29.05 -38.75L17.4 -19.55L29.3 0L25.95 0" />
</g>
<g id="PathID_8" transform="matrix(0.881343, 0, 0, 0.664063, 75.15, 29.05)" opacity="1">
</g>
<g id="PathID_9" transform="matrix(0.881343, 0, 0, 0.664063, 102.6, 29.05)" opacity="1">
<path style="fill:#000000;fill-opacity:1" d="M30.15 0L25.75 -12L9 -12L4.6 0L1.55 0L16.15 -38.75L18.8 -38.75L33.25 0L30.15 0M17.45 -35.25L17.3 -35.25Q16.85 -33.5 16.45 -32.4L9.95 -14.55L24.8 -14.55L18.3 -32.35L17.45 -35.25" />
</g>
<g id="PathID_10" transform="matrix(0.881343, 0, 0, 0.664063, 102.6, 29.05)" opacity="1">
</g>
</svg>
