<?xml version="1.0" encoding="utf-8"?>
<svg version="1.1" id="Layer_1"
xmlns="http://www.w3.org/2000/svg"
xmlns:xlink="http://www.w3.org/1999/xlink"
width="332px" height="56px"
xml:space="preserve">
<g id="PathID_1" transform="matrix(1.40625, 0, 0, 1.40625, -6, 54.65)" opacity="1">
<path style="fill:#000000;fill-opacity:1" d="M9.9 0L3.75 0L3.75 -38.9L9.9 -38.9L9.9 0" />
</g>
<g id="PathID_2" transform="matrix(1.40625, 0, 0, 1.40625, -6, 54.65)" opacity="1">
</g>
<g id="PathID_3" transform="matrix(1.40625, 0, 0, 1.40625, 21.6, 54.65)" opacity="1">
<path style="fill:#000000;fill-opacity:1" d="M49.1 0L2 0L2 -19.55Q2 -30.2 8.25 -34.75Q13.4 -38.5 24.7 -39.05L24.65 -32.95Q15.15 -32.4 11.55 -29.4Q8.55 -26.75 8.2 -20.6L8.15 -6.15L49.1 -6.15L49.1 0" />
</g>
<g id="PathID_4" transform="matrix(1.40625, 0, 0, 1.40625, 21.6, 54.65)" opacity="1">
</g>
<g id="PathID_5" transform="matrix(1.40625, 0, 0, 1.40625, 103.1, 54.65)" opacity="1">
<path style="fill:#000000;fill-opacity:1" d="M48.55 0L42.4 0L42.4 -16.35L7.6 -16.35L7.6 0L1.45 0L1.45 -19.55Q1.45 -28.65 6.5 -33.75Q11.5 -38.9 20.8 -38.9L48.55 -38.9L48.55 0M42.4 -32.75L33.25 -32.8L25.85 -32.9Q15.6 -32.9 12.35 -31.15Q8.65 -29.2 7.9 -22.5L42.4 -22.5L42.4 -32.75" />
</g>
<g id="PathID_6" transform="matrix(1.40625, 0, 0, 1.40625, 103.1, 54.65)" opacity="1">
</g>
<g id="PathID_7" transform="matrix(1.40625, 0, 0, 1.40625, 183.95, 54.65)" opacity="1">
<path style="fill:#000000;fill-opacity:1" d="M49.4 -3.55L45.55 1.2L24.6 -15.5L3.6 1.2L-0.2 -3.55L19.75 -19.45L-0.2 -35.35L3.6 -40.15L24.6 -23.4L45.55 -40.15L49.4 -35.35L29.55 -19.45L49.4 -3.55" />
</g>
<g id="PathID_8" transform="matrix(1.40625, 0, 0, 1.40625, 183.95, 54.65)" opacity="1">
</g>
<g id="PathID_9" transform="matrix(1.40625, 0, 0, 1.40625, 264.65, 54.65)" opacity="1">
<path style="fill:#000000;fill-opacity:1" d="M48.55 0L42.4 0L42.4 -16.35L7.6 -16.35L7.6 0L1.45 0L1.45 -19.55Q1.45 -28.65 6.5 -33.75Q11.5 -38.9 20.8 -38.9L48.55 -38.9L48.55 0M42.4 -32.75L33.25 -32.8L25.85 -32.9Q15.6 -32.9 12.35 -31.15Q8.65 -29.2 7.9 -22.5L42.4 -22.5L42.4 -32.75" />
</g>
<g id="PathID_10" transform="matrix(1.40625, 0, 0, 1.40625, 264.65, 54.65)" opacity="1">
</g>
</svg>
